<svg width="120" height="120" xmlns="http://www.w3.org/2000/svg">
 <!-- Created with SVG Editor - http://github.com/mzalive/SVG Editor/ -->

 <g>
  <title>background</title>
  <rect x="-1" y="-1" width="122" height="122" id="canvas_background" fill="none"/>
 </g>
 <g>
  <title>Layer 1</title>
  <path fill="#ffffff" stroke="null" stroke-width="1.5" stroke-opacity="null" fill-opacity="null" d="m59,40.5c-19.28422,0 -34.5,17.99883 -34.5,17.99883s15.21578,18.00117 34.5,18.00117c14.74812,0 34.50001,-18.00117 34.50001,-18.00117s-19.75189,-17.99883 -34.50001,-17.99883zm0,29.21486c-6.76966,0 -12.28455,-5.03286 -12.28455,-11.21603s5.51489,-11.21602 12.28455,-11.21602s12.28456,5.0352 12.28456,11.21602s-5.51489,11.21603 -12.28456,11.21603zm0,-17.76318c-3.95855,0 -7.17088,2.93059 -7.17088,6.54715c0,3.61657 3.20977,6.54716 7.17088,6.54716c3.96112,0 7.17089,-2.93059 7.17089,-6.54716c0,-3.61423 -3.20977,-6.54715 -7.17089,-6.54715z" id="svg_1"/>
  <path id="svg_3" d="m59,110.5c-29.28177,0 -53,-23.27072 -53,-52c0,-28.72928 23.71823,-52 53,-52c29.28177,0 53,23.27072 53,52c0,28.72928 -23.71823,52 -53,52z" opacity="undefined" stroke-width="5.5" stroke="#00bf00" fill="none"/>
  <path stroke="null" id="svg_2" d="m33,51.01597l17.84646,0l0,-17.51597l18.30708,0l0,17.51597l17.84646,0l0,17.96806l-17.84646,0l0,17.51597l-18.30708,0l0,-17.51597l-17.84646,0l0,-17.96806z" stroke-width="1.5" fill="#00bf00"/>
 </g>
</svg>